<?xml version="1.0" encoding="UTF-8"?>
<svg id="Layer_1" xmlns="http://www.w3.org/2000/svg" version="1.1" viewBox="0 0 957.72 1044.67">
  <!-- Generator: Adobe Illustrator 30.5.1, SVG Export Plug-In . SVG Version: 2.1.4 Build 3)  -->
  <defs>
    <style>
      .st0 {
        fill: #cbdc3e;
      }

      .st1 {
        fill: #70c59b;
      }

      .st2 {
        fill: #84c55c;
      }

      .st3 {
        fill: #9dc43c;
      }

      .st4 {
        fill: #84c55d;
      }

      .st5 {
        fill: #98cb55;
      }

      .st6 {
        fill: #4dad4a;
      }

      .st7 {
        fill: #4cad4a;
      }

      .st8 {
        fill: #5eb66c;
      }

      .st9 {
        fill: #35a663;
      }

      .st10 {
        fill: #5bbd76;
      }

      .st11 {
        fill: #c9d32d;
      }

      .st12 {
        fill: #69bf70;
      }

      .st13 {
        fill: #5abd76;
      }

      .st14 {
        fill: #65bb7e;
      }

      .st15 {
        fill: #60ba47;
      }

      .st16 {
        fill: #97ca52;
      }

      .st17 {
        fill: #287d54;
      }

      .st18 {
        fill: #2ca361;
      }

      .st19 {
        fill: #79b544;
      }

      .st20 {
        fill: #44ba80;
      }

      .st21 {
        fill: #b0d578;
      }

      .st22 {
        fill: #4cac4a;
      }

      .st23 {
        fill: #79b543;
      }

      .st24 {
        fill: #79b644;
      }

      .st25 {
        fill: #dae13d;
      }

      .st26 {
        fill: #277d53;
      }

      .st27 {
        fill: #59bd76;
      }
    </style>
  </defs>
  <g id="DJ1yy9.tif">
    <g>
      <path class="st2" d="M602.08,632.42l108.75,1.42,9.67.52c20.73,38.98,35.33,80.61,41.34,124.19l-5.76,3.3c-51.58-7.94-99.88-27.1-145.42-54.77.96,55.5-6.91,109.01-27.84,158.65-43.31-31.73-77.32-75.33-103.36-122.13l1.9-5.7c17.7-33.43,30.8-68.57,38.23-105.28l3.82,2.87c25.42,28.16,54.79,51.75,87.23,71.58-.77-25.88-3.52-50.35-8.56-74.65Z"/>
      <path class="st22" d="M477.93,744.01c-18.72,33.93-42.55,66.97-70.7,94.46l-32.35,27.09c-20.83-49.08-28.94-103.55-27.73-158.41-45.44,27.32-93.43,46.85-145.25,54.82l-5.82-3.35c5.67-43.5,20.41-84.7,40.93-123.93l11.22.08c.72,0,3-.52,3.02-.91l104.19-1.41c-4.57,24.11-7.75,48.02-8.25,74.45,33.7-20.14,64.53-45.59,90.83-75.12,7.29,37.64,20.9,73.56,39.13,107.72.55,1.03,1.24,3.69.78,4.52Z"/>
      <path class="st23" d="M443.52,161.6c-35.65,14.75-57.88,50.41-49.34,89.69,5.33,24.52,19.63,50.03,41.68,62.37-30.17,8.3-61.49,28.53-81.8,49.35-33.41-10.15-68.16-14.94-103.21-15.88-28.1-45.86-48.71-97.68-54.99-151.45,53.05,6.07,104.65,26.96,151.27,55.01-1.18-55.34,6.93-109.3,27.77-158.66,26.39,19.29,49.2,43.03,68.61,69.56Z"/>
      <path class="st22" d="M866.18,374.96c-32.29,43.15-75.59,77.36-123.76,103.98,47.93,26.35,91.34,60.68,123.37,103.94-15.33,6.34-31.09,11.57-47.22,16.33-50.7-17.51-91.72-55.23-123.95-97.4l48.02-22.9c-27.99-15.28-56.13-26.81-85.9-34.91l-10.14-18.82,3.27-4.49c21.46-21.42,39.67-45.23,55.69-71.01l3.4-2.57c27.22-.36,54.11,1.29,81.48,6.05,26.42,4.58,51.36,11.71,75.74,21.79Z"/>
      <path class="st22" d="M250.99,347.76c16.97,27.7,37.03,53.56,60.74,76.29l-11.21,20.77c-29.56,7.54-57.37,19.06-85.07,34.12,16.02,8.55,31.59,15.95,48.2,22.16-32.28,42.38-73.14,80.17-124.07,97.99-16.2-4.58-32.04-9.75-47.41-16.13,31.63-43.33,74.98-77.34,123.12-104.05-48.18-26.73-91.97-61.06-123.63-104.01,50.45-20.79,105.31-29.18,159.33-27.14Z"/>
      <path class="st8" d="M192.21,195.26l3.65.42c6.28,53.77,26.9,105.59,54.99,151.45l.14.63c-54.02-2.04-108.88,6.35-159.33,27.14l-.71-.96c-20.73-27.88-38.84-64.12-36.81-99.97,1.36-24.03,12.86-45.01,32.43-58.72,29.67-20.78,70.59-23.99,105.64-19.99Z"/>
      <path class="st14" d="M866.91,373.97l-.72.98c-24.37-10.08-49.32-17.21-75.74-21.79-27.37-4.77-54.26-6.41-81.48-6.05l-1.75-.11c27.59-45.59,48.66-98.07,54.96-151.14,34.62-4.35,73.63-2.49,104.39,16.29,22.12,13.51,35.58,35.84,37.04,61.85,2.02,35.93-16.1,71.76-36.71,99.97Z"/>
      <path class="st21" d="M375.2,91.09l-.3.94c-20.84,49.36-28.95,103.32-27.77,158.66-46.62-28.05-98.22-48.95-151.27-55.01l-3.65-.42,3.14-.47c-3.66-34.59-1.87-72.19,16.05-102.45,13.86-23.41,37.41-37.5,64.81-38.31,36.11-1.07,70.31,16.95,99,37.06Z"/>
      <path class="st21" d="M866.68,582.56l-.89.31c-32.03-43.26-75.44-77.59-123.37-103.94,48.17-26.62,91.47-60.83,123.76-103.98l.72-.98.8,1.99c20.04,8.76,38.46,19.61,54.77,34.1,29.97,26.71,45.4,63.56,27.81,101.4-15.66,33.69-50.92,56.4-83.61,71.11Z"/>
      <path class="st21" d="M91.66,374.9c31.65,42.95,75.44,77.28,123.63,104.01-48.14,26.71-91.49,60.72-123.12,104.05l-1.09-.45c-29.92-12.5-63.3-35.11-80.13-64.22-23.52-40.69-6.78-82.33,27.68-111.15,15.28-12.78,31.97-22.58,50.27-30.69.9-.4,2.46-1.87,2.05-2.51l.71.96Z"/>
      <path class="st21" d="M762.18,195.86c-52.93,5.83-104.95,26.7-150.7,54.07l-.69-5.97c-.07-52.95-7.39-102.96-27.96-151.88-.07-.26-.27-.99-.24-.89,28.59-20.12,62.4-37.97,98.28-37.18,26.92.59,50.32,13.96,64.43,36.7,19,30.6,21.02,70.27,16.88,105.14Z"/>
      <path class="st1" d="M582.83,865.73l-.25.8c-8.62,18.79-18.01,37.6-32.42,53.13l-11.02,12.32c-10.74-2.88-23-1.21-33.08,4.71-2.46,1.44.27,8.24,2.73,7.5,6.87-2.07,12.71-4.75,19.84-4.78-12.36,10.06-27.56,16.79-44.28,18.01,4.8-5.09,6.64-13.45,3.47-19.62-6.34-12.33-33.62-8.98-45.46,10.62-13.77-7.44-25.45-17.44-35.56-29.57l-18.3-26.03-1.15,1.17,1.51-12.49c-1.58-1.16-5.46-1.88-7.39-1.24l-6.14-13.63-.46-1.07,32.35-27.09c28.15-27.49,51.99-60.53,70.7-94.46l1.54-.41c26.04,46.81,60.05,90.41,103.36,122.13Z"/>
      <path class="st1" d="M582.59,91.2c-.03-.1.17.63.24.89-25.37,18.23-47.15,40.97-66.65,66-1.14,1.47-2.13,3.36-2.34,4.77-11.33-5.11-31.21-10.92-42.74-8.91-9.82,1.71-19,4.1-27.58,7.65-19.42-26.53-42.23-50.27-68.61-69.56l.3-.94c7.69-16.49,16.13-32.49,27.61-47.2,27.89-36.61,70.92-57.37,113.55-34.01,31.55,17.29,51.73,49.71,66.22,81.32Z"/>
      <path class="st22" d="M762.18,195.86c-6.3,53.08-27.38,105.56-54.96,151.14-34.91,1.03-69.75,5.85-103.42,16.1l-9.12-8.76c9.4-31.08,14.34-62.91,15.81-95.54l.99-8.87c45.75-27.38,97.78-48.25,150.7-54.07Z"/>
      <path class="st21" d="M688.64,903.24c-31.71,3.37-62.52-9.01-89.89-26.1,11.75-11.76,24-22.57,38.48-31.26l56.85-34.1,69.27-37.55c2.37,35.4-1.93,74.05-24.73,102.05-12.78,15.41-30.06,24.71-49.98,26.95Z"/>
      <path class="st21" d="M354.6,880.07l-5.53.15c-1.4.04-2.98,3.25-2.86,4.55-44.54,24.05-98.21,31.14-130.85-13.34-19.41-27.6-23.17-63.01-21.03-97.27l75.33,40.97,54.01,32.93c13.35,8.14,24.46,18.42,35.49,28.99l-4.55,3.03Z"/>
      <path class="st21" d="M756.09,761.85l-75.01,40.94-56.41,34.52c-13.76,9.49-25.95,19.63-37.73,31.49l-4.37-2.26.25-.8c20.93-49.63,28.8-103.15,27.84-158.65,45.54,27.67,93.85,46.83,145.42,54.77Z"/>
      <path class="st21" d="M374.88,865.56l.46,1.07-4.43,2.14c-12.7-12.67-25.7-24.43-41.15-33.78l-55.42-33.54-72.43-39.48c51.83-7.97,99.81-27.49,145.25-54.82-1.21,54.86,6.9,109.33,27.73,158.41Z"/>
      <path class="st22" d="M610.79,243.96l-.41,6.68c-27.71,17.06-53.36,36.89-76.41,60.13l-4.05,5.26-8.36-2.5c21.78-11.49,35.43-35.79,41.01-59.94,9.07-39.26-13.18-74.7-48.74-90.74.2-1.41,1.2-3.3,2.34-4.77,19.5-25.03,41.28-47.77,66.65-66,20.57,48.92,27.89,98.93,27.96,151.88Z"/>
      <path class="st1" d="M251.25,633.85c-.02.39-2.3.92-3.02.91l-11.22-.08c-20.53,39.23-35.27,80.43-40.93,123.93l-31.95-20.88c-15.92-12.84-30.42-26.56-44.25-41.54-11.99-12.99-26.58-33.52-11.53-43.52,6.05-4.02,12.89-7.49,20.26-8.68l36.92-5.96c28.84-2.62,57.24-3.81,85.72-4.19Z"/>
      <path class="st1" d="M761.85,758.56c-6.01-43.58-20.61-85.22-41.34-124.19l-9.67-.52,13.01.27,80.18,5.25c14.93.98,43.9,7.2,50.67,19.43,6.07,10.97-12.23,33.99-22.42,43.42l-37.34,34.53-33.08,21.81Z"/>
      <path class="st1" d="M711.64,619.82l-4.01-9.1c28.23.35,56.59-1.21,84.61-6.94,30.94,14.69,64.02,21.56,98.35,19.75,19.62,42.95,20.55,89.64-19.13,118.87-25.15,17.88-58.54,22.86-90.17,21.29,11.49-7.6,21.93-14.67,31.87-23.67,19.62-17.78,47.09-41.92,55.26-65.55,7.83-22.64-10.2-36.94-32.23-43.19-12.86-3.65-25.53-6.28-39.01-6.98l-85.54-4.48Z"/>
      <path class="st1" d="M245.02,619.83c-28.48.23-55.93,1.64-84.14,4.43-20.28,2.01-44.18,5.64-60.36,16.61-11.59,7.86-15.84,21.43-10.92,34.61,8.04,21.54,30.32,41.78,47.8,58.05,12.3,11.45,24.74,21.17,39.33,30.15-29.7,1.57-60.89-2.84-85.43-17.95-44.21-27.91-44.98-77.17-24.1-122.19,34.5,1.77,67.63-5.13,98.34-19.82,27.52,5.58,55.49,7.46,84.96,6.98l-5.49,9.12Z"/>
      <path class="st18" d="M327.15,519.69c16.84,2.98,33.91,4.88,51.39,4.5l11.81,18.62c-9.7,14.62-16.79,30.63-22.23,47.19l-1.06.72c-37.37,12.87-76.71,18.94-116.62,20.07,20.88-34,45.79-64.59,75.06-91.04l1.65-.06Z"/>
      <path class="st20" d="M631.25,519.72l.77.1c29.51,26.24,54.7,57.11,74.78,90.97-39.14-1.16-78.56-7.32-115.64-20l-1.48-.71c-5.41-16.6-12.49-32.55-21.95-47.76l11.94-18.96,2.28,1.4c16.93-.5,33.18-2.12,49.3-5.04Z"/>
      <path class="st27" d="M568.03,479.1l13.62,7.04c-11.03,28.44-26.75,54.97-48.68,76.05l-9.92-6.72.9,15.39c-9.58,9.2-20.39,16.41-32.15,22.38l-13.09-25.85-13.09,25.62c-12.24-6.08-23.17-13.77-32.89-23.19l2.16-15.02c13.83-9.87,25.22-22.76,33.93-37.14-.29,16.49,3.6,32.93,9.99,48.1,7.13-15.91,9.53-31.31,10.96-47.06,8.39,13.82,19.1,25.85,32.92,36.18-1.84-16.53-7.08-32.39-15.02-46.95,14.45,7.36,29.55,12.6,46.92,14.7-9.75-12.83-21.61-24.06-35.76-32.36l7.5-1.06c13.53-1.64,27.09-4.44,39.54-10.05l2.14-.04Z"/>
      <path class="st20" d="M520.89,623.74l-1.3,8.89c-7.42,36.71-20.53,71.84-38.23,105.28l-1.9,5.7-1.54.41c.46-.83-.23-3.48-.78-4.52-18.23-34.17-31.84-70.08-39.13-107.72l-1.04-8.07,41.98-9.56,41.93,9.59Z"/>
      <path class="st22" d="M434.99,402.92c2.14,16.49,7.02,32.48,14.92,47.2-14.61-7.82-30.36-13.13-46.84-14.93,10.02,13.11,21.22,23.59,35,31.96l-.91,1.57c-15.45.19-30.51,3.85-45.89,10.17,13.85,6.06,27.57,8.64,41.52,10.38l6.28.78c-14.58,8.68-26.08,19.64-36.14,32.71,17.05-2.16,32.61-7.22,47.1-14.81-8.09,14.5-13.04,30.4-15.14,46.84l-10.4,7.04c-9.9-9.59-18.32-20.41-25.76-32.05l4.09-6.99-8.06.78c-7.67-12-14.4-24.52-18.91-38.04l14.78-6.53-20.08-9.34c-3.91-11.73-5.75-23.86-6.54-36.35l38.76,1.53c-12.78-16.95-22.75-35.03-30.01-54.6l4.72-8.95c20.56,7.96,40.2,18.23,57.49,31.64Z"/>
      <path class="st22" d="M325.5,519.75c-29.27,26.46-54.19,57.04-75.06,91.04,39.91-1.12,79.25-7.2,116.62-20.07l-8.1,27.31-39.26,1.2-74.68.59,5.49-9.12c-29.46.48-57.43-1.4-84.96-6.98,45.22-21.63,82.19-57.35,111.88-97.31l48.07,13.33Z"/>
      <path class="st22" d="M792.25,603.79c-28.02,5.72-56.38,7.29-84.61,6.94l-.84.07c-20.08-33.86-45.27-64.73-74.78-90.97l48.52-13.06c29.58,39.64,66.74,75.67,111.71,97.03Z"/>
      <path class="st22" d="M520.41,328.75c4.27,24.36,5.28,48.19,2.56,73.82,17.91-13.31,36.77-23.45,57.52-30.83l4.91,9.44c-7.96,19.02-18.03,37.14-30.37,53.71-14.78,1.96-29.38,5.76-42.98,13.06l-3.46.08c7.47-13.94,12.06-28.94,14.17-45.06-13.21,10.04-24.37,22.05-32.81,36.08-.81-16.64-4.54-32.82-10.97-48.21,10.06-22.9,23.33-44.79,41.44-62.08Z"/>
      <path class="st22" d="M454.23,174.47l24.46,40.85c-14.46,27.08-26.44,55.2-34.91,84.97-19.62-8.84-30.88-31.83-33.93-53.27-4.9-34.47,13.97-58.79,44.37-72.56Z"/>
      <path class="st22" d="M513.76,300.39c-8.4-29.85-20.26-58.25-34.88-85.19l25.14-39.3c28.34,13.32,47.33,35.79,44.14,68.11-2.22,22.57-13.96,47.27-34.4,56.39Z"/>
      <path class="st23" d="M611.48,249.93l-.99,8.87c-1.48,32.63-6.42,64.46-15.81,95.54-19.1-16.38-41.01-29.98-64.76-38.31l4.05-5.26c23.05-23.24,48.69-43.07,76.41-60.13l.41-6.68.69,5.97Z"/>
      <path class="st23" d="M326.84,438.27l24.39,19.07,1.19-1.46c3.03,13.16,5.71,26.18,11.61,38.37-.91-.54-3.58.19-4.53.9l-32.36,24.54-1.65.06-48.07-13.33c16.98-22.85,31.67-46.56,44.82-71.86l4.59,3.72Z"/>
      <path class="st23" d="M636.13,435.84c13.15,24.99,27.59,48.38,44.41,70.92l-48.52,13.06-.77-.1-34.01-25.25c-.77-.57-2.26-1.98-2.41-3.08l10.17-33.92,25.77-19.11,5.35-2.52Z"/>
      <path class="st18" d="M354.07,363.01c-17.39,17.83-30.53,39.16-42.34,61.04-23.7-22.72-43.77-48.58-60.74-76.29l-.14-.63c35.05.94,69.8,5.73,103.21,15.88Z"/>
      <path class="st18" d="M707.22,347.01l1.75.11-3.4,2.57c-16.02,25.78-34.23,49.59-55.69,71.01l-3.27,4.49c-11.98-22.24-24.56-44.54-42.81-62.07,33.67-10.25,68.51-15.08,103.42-16.1Z"/>
      <path class="st16" d="M602.08,632.42c5.04,24.3,7.8,48.77,8.56,74.65-32.44-19.83-61.81-43.42-87.23-71.58l-3.82-2.87,1.3-8.89c26.81,4.82,53.95,8.33,81.19,8.69Z"/>
      <path class="st23" d="M436.98,623.7l1.04,8.07c-26.3,29.53-57.13,54.98-90.83,75.12.5-26.43,3.68-50.34,8.25-74.45,27.35-.37,54.61-3.87,81.53-8.73Z"/>
      <path class="st18" d="M513.76,300.39c-10.84,4.84-22.55,5.7-34.72,5.7-12.35,0-24.16-.79-35.26-5.79,8.47-29.77,20.45-57.89,34.91-84.97l.19-.12c14.62,26.95,26.49,55.34,34.88,85.19Z"/>
      <path class="st26" d="M75.23,937.96l41.98-.14c1.49.38,3.08,1.58,3.88,2.99l-7.03,57.58c-3.08,2.15-7.37,1.94-10.47-.2l.6-8.93c-8.78,8.64-19.94,11.31-31.89,10.53-27.16-1.78-35.11-26.54-33.71-52.22.82-15.08,4.25-29.12,11.49-42.03,13.32-23.78,43.29-31.27,65.16-14.93,1.37,1.02,3.27,3.88,2.88,5.25s-2.38,3.36-4,4.35c-1.44.88-3.87-1.39-5.56-2.94-10.57-9.76-27.02-9.52-37.98-.52-6.42,5.27-10.74,11.72-13.77,19.39-9.34,23.63-14.22,60.09,9.02,71.97,14.98,7.66,35.37-.12,40.26-16.46l3.9-25.23-35.19-.39c-2.68-.03-2.64-7.22.46-8.07Z"/>
      <path class="st18" d="M520.41,328.75c-18.11,17.3-31.38,39.18-41.44,62.08l-.44-.13c-9.7-22.82-23.11-44.41-40.39-63.07,27.69-4.75,54.62-5.22,82.27,1.12Z"/>
      <path class="st16" d="M589.68,590.08l1.48.71,5.21,18.6,1.29,8.57c-25.4-.81-50.24-3.05-74.58-8.26l1.01-20.43,21.75-19.95c13.7,8.86,28.7,15.55,43.83,20.75Z"/>
      <path class="st23" d="M433.19,588.87l.91,20.91c-24.92,5.19-49.7,7.48-75.14,8.26l8.1-27.31,1.06-.72c15.19-5.3,30.02-11.78,44.32-20.13l20.75,19Z"/>
      <path class="st23" d="M580.49,371.74c-20.75,7.38-39.6,17.53-57.52,30.83,2.72-25.63,1.71-49.46-2.56-73.82,23.02,5.28,49.35,22.37,60.08,42.99Z"/>
      <path class="st26" d="M387.36,893.99l-5.68,47.11c8.2-9.44,19.47-13.56,30.36-8.42,6.19,2.92,9.35,9.36,11.26,15.89,3.29,17.35-3.99,35.59-19.33,44.79-10.36,6.21-22.58,7.63-34.29,5.72-2.95-.48-4.82-3.58-4.19-6.36l13.36-109.17c.4-1.04,1.75-3,2.63-3.29,1.93-.64,5.81.08,7.39,1.24l-1.51,12.49ZM375.64,991.36c21.53,3.04,36.94-12.28,37.55-31.88.14-6.86-1.28-14.73-7.57-18.46-7.14-4.24-16.22-.17-20.33,6.77-3.01,5.09-5.39,10.83-6.17,16.8l-3.49,26.76Z"/>
      <path class="st23" d="M438.14,327.63c-5.19,25.87-6.34,50.74-3.15,75.29-17.3-13.41-36.94-23.68-57.49-31.64,10.02-16.87,25.18-30.58,43.87-37l16.78-6.65Z"/>
      <path class="st26" d="M836.76,990.87c-9.63,7.29-20.92,8.7-31.77,9.15l-5.81,42.64c-2.49,2.3-6.65,2.75-9.89.73l13.64-110.56c1.54-2.97,7.47-2.98,9.47-.98l-.4,10.04c4.64-5.28,9.43-9.37,16.34-10.85,11.39-2.44,22.8,4.31,24.88,16.13,2.86,16.25-2.88,33.43-16.46,43.71ZM805.87,991.6c7.59.35,12.84-.72,18.69-3.36,20.61-10.67,23.81-42.02,11.4-47.58-7.7-3.45-15.06-.05-20.02,6.16-3,5.22-5.74,11.1-6.53,17.26l-3.54,27.52Z"/>
      <path class="st26" d="M661.81,1037.01c-2.6-2.23,1.57-7.37,4.34-7.55,6.99,5.02,16,7.64,24.35,3.45,9.64-4.84,15.66-29.51,18.78-43.72-6.74,6.09-15.44,13.46-20.27,10-.86-.61-1.81-2.47-2-3.85l-8.5-62.84c.89-2.66,9-2.92,9.42.13l8.22,58.42c10.78-6.87,17.18-16.72,20.26-27.93l8.24-29.98c.78-2.82,7.27-3.37,9.93-1.54l-22.96,83.49c-2.65,9.64-7.58,18.77-15.79,24.37-9.91,6.77-24.62,5.64-34.02-2.45Z"/>
      <path class="st23" d="M694.62,501.82c-13.97-18.28-26.95-37.53-37.87-57.81,29.77,8.1,57.91,19.62,85.9,34.91l-48.02,22.9Z"/>
      <path class="st22" d="M593.39,437.46c-1.05,11.19-2.76,21.99-6.33,32.6l-19.03,9.04-2.14.04c-13.14-5.96-27.28-10.29-41.6-10.38l-4.64-1.24c13.86-8.67,26-19.52,35.38-32.64l37.91-1.39.45,3.96Z"/>
      <path class="st23" d="M300.52,444.82c-10.65,19.73-23.32,38.49-36.87,56.28-16.6-6.21-32.17-13.61-48.2-22.16,27.7-15.06,55.51-26.58,85.07-34.12Z"/>
      <path class="st26" d="M878.41,999.62c-9.78-1.25-14.66-9.2-13.59-18.22,2.27-18.99,24.74-24.35,43.4-25.4.81-3.78,1.56-9.09-.44-12.52s-7.31-4.23-10.99-4.09c-6.99.28-12.55,2.79-19.31,4.85-1.96.6-4.64-5.43-3.15-7.21,9.98-6.22,22.54-8.02,33.67-5.04,8.04,2.15,12.44,8.6,11.15,16.69l-3.74,23.57c-1.31,8.23-.89,15.85.07,24.4,0,2.49-7.6,4.45-8.88,2.23l-1.98-13.65c-4.94,9.67-14.9,15.82-26.22,14.38ZM896.46,986.79c5.15-7.18,8.67-13.5,10.16-22.65l-21.15,4.05c-4.92.94-8.12,5.59-10.12,10.06-.31,3.42-.11,7.01,1.8,9.37s5.09,3.27,8.61,4.02c3.88-1.14,7.08-2.57,10.71-4.85Z"/>
      <path class="st26" d="M539.14,931.99c7.9,2.12,12.49,8.41,11.2,16.64l-3.84,24.5c-1.26,8.07-.79,15.97.38,24.01-1.91,2.21-6.96,3.48-9.31,1.97l-1.72-13.89c-5.15,10.02-15.6,16.02-26.67,14.35-9.19-1.39-14.29-9.07-13.18-18.18,2.32-19,24.8-24.33,43.46-25.39.77-3.8,1.49-9.05-.44-12.49-1.78-3.17-6.95-4.11-10.38-4.09-7.13.03-12.97,2.7-19.84,4.78-2.46.74-5.19-6.05-2.73-7.5,10.07-5.92,22.34-7.59,33.08-4.71ZM526.36,987.3c6.67-6.18,9.55-14.14,11.45-23.04-8.5.33-16.93,1.43-24.3,5.65-6.18,3.54-9.57,11.52-5.24,17.43s12.84,4.83,18.09-.03Z"/>
      <path class="st4" d="M706.8,610.79l.84-.07,4.01,9.1-74.27-.58-39.71-1.27-1.29-8.57-5.21-18.6c37.08,12.68,76.5,18.84,115.64,20Z"/>
      <path class="st26" d="M621.83,931.81l-5.02,41.71c-.93,7.76.6,15.41,1.82,23.11-.1,2.3-6.57,4.37-8.3,2.59-2.01-4.36-2.45-9.28-3.13-14.11-6.49,12.65-20.8,18.95-33.17,12.23-6.04-3.28-8.79-12-8-18.8l5.34-45.8c.76-3.06,8.38-2.99,9.66-.24l-5.11,46c-.5,4.51,1.46,9.88,5.42,11.57,7.25,3.08,15.14-.33,19.29-7.01,3.88-6.24,6.37-13.89,7.4-21.38l4-29.02c1.39-2.43,6.57-2.85,9.8-.84Z"/>
      <path class="st26" d="M484.35,957.43c-9.23,9.79-22.7,12.98-36.81,13.19-.93,7.13,1.98,15.76,9.12,19.22,8.89,4.3,18.07.81,25.32-5.34,2.67,1.16,4.44,6.19,2.27,8.02-9.43,7.95-21.91,9.45-33.1,4.88-17.11-6.98-18.34-33.16-8.79-48.97,11.84-19.59,39.11-22.95,45.46-10.62,3.18,6.17,1.33,14.53-3.47,19.62ZM451.28,952.44c-1.72,2.95-2.58,6.38-3.58,10.41,7.94-.25,14.27-1.39,21.09-4.29,8.63-3.69,13.56-11.79,9.88-17.1-4.83-6.95-20.32-1.12-27.38,10.99Z"/>
      <path class="st26" d="M288.09,989.06c9.03,5.46,19.07,1.9,26.36-4.31,2.14,0,4.97,5.31,2.99,7.16-10.71,10.08-28.69,11.03-39.87,1.33-7.12-6.18-8.49-15.73-8.25-24.71.53-20.65,16.02-37.61,36.76-37.96,5.78-.1,12.15,2.25,14.62,7.4,3.84,8.01-.04,17.05-6.77,22.43-9.55,7.64-21.34,10.07-33.73,10.21-.46,6.87,1.47,14.56,7.89,18.44ZM311.49,941.11c-11.22-8.33-29.19,6.56-30.92,21.64,16.24.06,36.18-7.63,30.92-21.64Z"/>
      <path class="st1" d="M504.02,175.89l-25.14,39.3-.19.12-24.46-40.85c19.68-8.92,29.66-8.04,49.8,1.42Z"/>
      <path class="st26" d="M354.6,880.07c.84.61,1.68,3.25,1.52,4.58l-13.74,113.61c-3.37,1.94-6.68,2.23-9.75.43l13.57-113.92c-.12-1.3,1.45-4.51,2.86-4.55l5.53-.15Z"/>
      <path class="st26" d="M246.28,998.22c-9.73,3.61-21.2,1.49-29.2-4.57-2.36-1.78-.33-7.43,2.23-8.21,9.62,7.12,23.46,8.72,27.27,1.55,4.66-8.77-6.87-16.6-15.39-23.37-6.39-5.08-9.64-12.97-7.07-20.5,2.5-7.32,9.54-12.83,18.05-12.61,5.3.14,10.73,1,14.88,4.28,2.27,1.8-.06,8-2.52,7.66-6.14-3.05-13.06-5.92-18.93-1.32-4.65,3.64-3.09,11.06,1.23,14.79l14.98,12.92c4.71,4.06,6.57,10.62,5.27,16.87-.91,4.38-4.75,10.26-10.82,12.52Z"/>
      <path class="st26" d="M769.89,998.17c-9.69,3.68-21.15,1.54-29.23-4.48-2.4-1.78-.34-7.51,2.29-8.28,10.2,8.06,24.72,8.07,27.48.94,3.58-9.23-7.88-16.3-16.16-23.14-6.36-5.25-9.25-13.41-6.3-20.85,5.71-14.44,24.66-14.36,32.72-7.47,2.04,1.74-.12,7.51-2.61,7.66-5.81-3.24-13.11-5.94-18.83-1.52-4.86,3.76-3.19,11.09,1.23,14.92l14.91,12.94c4.74,4.11,6.56,10.51,5.26,16.69-.94,4.5-4.67,10.27-10.76,12.58Z"/>
      <path class="st26" d="M652.99,973.49c-2.18,18.44,8.18,27.89-6.74,25.66-3.08-5.72-4.05-12.92-3.32-19.67l4.12-37.96-8.97-.53c-2.39-.65-1.76-7.73,1.06-8.08l9.05-.62,2.75-20.81c.46-3.5,6.73-4.68,9.9-3.49l-2.82,24.4,13.82.53c2.69.1,1.76,8.06-1.26,8.15l-13.81.44-3.79,31.99Z"/>
      <path class="st18" d="M593.39,437.46l-.45-3.96-37.91,1.39c12.33-16.57,22.41-34.68,30.37-53.71,7.8,17.6,9.81,36.95,7.99,56.28Z"/>
      <path class="st18" d="M364.03,433.3c-1.16-18.35.24-36.94,8.75-53.07,7.26,19.57,17.23,37.65,30.01,54.6l-38.76-1.53Z"/>
      <path class="st26" d="M148.5,997.65c-.38,2.76-7.89,3.13-9.6.96l7.95-66.18c2.08-2.21,7.16-2.48,9.44-.73l-.67,11.66c5.63-7.98,14.59-15.27,24.99-13.15,1.53.31,1.61,4.72.74,5.94-3.99,5.57-12.02.73-19.48,10.18-4.97,6.29-8.24,14.17-9.36,22.32l-4.01,29.01Z"/>
      <path class="st27" d="M589.68,590.08c-15.13-5.2-30.13-11.89-43.83-20.75l21.88-27.01c9.46,15.21,16.54,31.16,21.95,47.76Z"/>
      <path class="st7" d="M412.44,569.87c-14.29,8.35-29.12,14.83-44.32,20.13,5.44-16.56,12.54-32.57,22.23-47.19l22.08,27.06Z"/>
      <path class="st1" d="M866.68,582.56l16.71,26.95c-23.2.61-44.36-3.24-64.82-10.3,16.13-4.77,31.89-9.99,47.22-16.33l.89-.31Z"/>
      <path class="st1" d="M139.58,599.08c-20.81,7.28-42.48,11.02-65.42,10.46l16.91-27.04,1.09.45c15.37,6.38,31.22,11.55,47.41,16.13Z"/>
      <path class="st27" d="M631.25,519.72c-16.12,2.92-32.37,4.54-49.3,5.04l-2.28-1.4,15.17-31.98c.15,1.1,1.64,2.51,2.41,3.08l34.01,25.25Z"/>
      <path class="st7" d="M364.05,494.25l14.5,29.94c-17.48.38-34.56-1.52-51.39-4.5l32.36-24.54c.95-.71,3.62-1.44,4.53-.9Z"/>
      <path class="st18" d="M636.13,435.84l-5.35,2.52-22.91-3.97c2.18-17.6-1.13-34.23-6.23-52.12,14.85,16.48,24.56,34.71,34.49,53.58Z"/>
      <path class="st18" d="M350.1,437.33c-.17-1.25-2.6-2.43-3.78-2.24l-19.48,3.18-4.59-3.72c9.77-18.81,19.91-36.59,34.19-52.96-5.77,18.69-8.72,36.81-6.34,55.74Z"/>
      <path class="st26" d="M199.02,996.91c-.45,3.66-7.03,3.82-9.86,1.94l7.91-66.22c1.84-2.77,7.34-2.86,9.86-.35l-7.91,64.64Z"/>
      <path class="st20" d="M491.81,593.23c-14.3,7.26-12.58,6.53-26.18-.23l13.09-25.62,13.09,25.85Z"/>
      <polygon class="st6" points="630.78 438.35 605.01 457.46 607.87 434.38 630.78 438.35"/>
      <path class="st6" d="M350.1,437.33l2.33,18.55-1.19,1.46-24.39-19.07,19.48-3.18c1.18-.18,3.6,1,3.78,2.24Z"/>
      <polygon class="st10" points="434.1 609.78 433.19 588.87 456.98 605.01 434.1 609.78"/>
      <polygon class="st13" points="523.09 609.71 500.68 604.92 524.1 589.27 523.09 609.71"/>
      <path class="st17" d="M211.56,903.73c1.39,2.55.15,7.2-1.77,8.83s-6.68,2.28-9.14.58c-3.43-2.38-2.23-8.07.28-10.34,2.51-2.26,8.4-3.14,10.63.93Z"/>
      <polygon class="st19" points="375.86 485.53 370.56 469.65 390.64 478.99 375.86 485.53"/>
      <polygon class="st23" points="587.06 470.06 581.65 486.14 568.03 479.1 587.06 470.06"/>
      <polygon class="st5" points="532.98 562.19 523.96 570.85 523.06 555.47 532.98 562.19"/>
      <polygon class="st24" points="432.74 569.81 424.5 561.83 434.9 554.79 432.74 569.81"/>
      <polygon class="st9" points="398.73 529.78 394.77 523.57 402.83 522.79 398.73 529.78"/>
      <path class="st0" d="M470.13,514.78l-1.3,2.86c-8.72,14.39-20.1,27.27-33.93,37.14,2.11-16.44,7.05-32.34,15.14-46.84l2.04-2.11c8.79-4.33,15.56-12.02,22.81-19.86-2.81,8.97-7.43,20.14-4.76,28.81Z"/>
      <path class="st0" d="M506.09,505.7l1.6,2.21c7.93,14.55,13.17,30.42,15.02,46.95-13.82-10.33-24.54-22.36-32.92-36.18l-1.43-2.69c1.01-9.45-1.93-18.36-4.53-28.57,7.12,7.81,13.87,14.2,22.26,18.29Z"/>
      <path class="st0" d="M524.29,468.76c14.32.09,28.46,4.42,41.6,10.38-12.45,5.61-26.01,8.41-39.54,10.05l-10.17-.12c-8.03-5.3-17.39-7.89-27.1-10.05,10.48-2.74,19.36-5.15,27.25-10.3l7.96.05Z"/>
      <path class="st12" d="M516.18,489.07l10.17.12-7.5,1.06c14.16,8.3,26.02,19.53,35.76,32.36-17.37-2.1-32.47-7.33-46.92-14.7l-1.6-2.21c-5.05-8.78-12.22-15.87-20.35-22.83,10.47,3.64,20.22,6.35,30.45,6.2Z"/>
      <path class="st12" d="M488.36,515.98l1.43,2.69c-1.43,15.76-3.83,31.16-10.96,47.06-6.39-15.17-10.28-31.6-9.99-48.1l1.3-2.86c3.99-8.76,7.03-17.72,8.53-28.19,2.16,10.4,4.85,20.24,9.7,29.39Z"/>
      <path class="st15" d="M449.91,450.12l1.89,1.94c4.95,8.85,12.2,15.72,20.44,22.96-10.47-3.5-20.09-6.06-30.31-6.36l-4.76.06.91-1.57c-13.78-8.37-24.98-18.85-35-31.96,16.49,1.8,32.23,7.11,46.84,14.93Z"/>
      <path class="st15" d="M472.07,482.65c-7.85,6.75-15.18,14.12-19.99,23.19l-2.04,2.11c-14.5,7.59-30.05,12.65-47.1,14.81,10.06-13.07,21.57-24.03,36.14-32.71l-6.28-.78,9-.29c10.29.02,20.5-2.59,30.28-6.33Z"/>
      <path class="st3" d="M437.16,468.72l4.76-.06c8.33,5.55,17.9,7.88,29.07,10.36-10.28,1.84-20.34,4.5-29.19,9.96l-9,.29c-13.95-1.73-27.67-4.32-41.52-10.38,15.37-6.32,30.43-9.98,45.89-10.17Z"/>
      <path class="st3" d="M467.2,438.19l2.01,3.71c-.57.17-.82.36-.81.64l.04,1.91c.17,9,3.08,17.46,5.76,26.75-6.96-7.85-13.81-14.58-22.4-19.15l-1.89-1.94c-7.89-14.72-12.77-30.71-14.92-47.2,12.71,9.8,24.57,21.18,32.21,35.27Z"/>
      <path class="st15" d="M489.95,439.04l-1.27,2.54c-4.83,9.65-8.19,20.5-10.11,31.39-1.01-11.44-4.26-21.64-9.36-31.06l-2.01-3.71,1.94-11.35c1.48-12.68,5.1-24.33,9.4-36.14l.44.13c6.43,15.39,10.16,31.56,10.97,48.21Z"/>
      <path class="st15" d="M555.03,434.88c-9.38,13.12-21.52,23.96-35.38,32.64l4.64,1.24-7.96-.05c-10.3-.06-21.04,1.61-30.19,6.47,7.62-7.04,14.78-14.46,20.06-23.28l2.38-3.87,3.46-.08c13.6-7.3,28.2-11.1,42.98-13.06Z"/>
      <path class="st3" d="M508.59,448.02l-2.38,3.87c-8.35,4.16-14.68,10.62-22.14,18.16,2.45-9.63,5.14-18.81,4.61-28.48l1.27-2.54c8.44-14.03,19.6-26.04,32.81-36.08-2.11,16.12-6.7,31.12-14.17,45.06Z"/>
      <path class="st22" d="M478.53,390.7c-4.3,11.81-7.92,23.46-9.4,36.14l-1.94,11.35c-7.63-14.09-19.49-25.48-32.21-35.27-3.19-24.55-2.04-49.41,3.15-75.29,17.28,18.66,30.7,40.25,40.39,63.07Z"/>
      <path class="st1" d="M468.79,958.56c.88.07-.29-1.26-.62-1.34l-16.89-4.77c7.06-12.11,22.56-17.94,27.38-10.99,3.68,5.31-1.24,13.41-9.88,17.1Z"/>
      <path class="st25" d="M516.33,468.71c-7.88,5.16-16.76,7.57-27.25,10.3,9.71,2.16,19.07,4.75,27.1,10.05-10.23.15-19.97-2.56-30.45-6.2,8.13,6.97,15.3,14.05,20.35,22.83-8.39-4.08-15.14-10.47-22.26-18.29,2.61,10.21,5.54,19.12,4.53,28.57-4.84-9.15-7.53-18.99-9.7-29.39-1.49,10.47-4.54,19.43-8.53,28.19-2.67-8.67,1.96-19.84,4.76-28.81-7.26,7.85-14.03,15.53-22.81,19.86,4.81-9.07,12.15-16.44,19.99-23.19l14.07-7.47c9.14-4.86,19.88-6.53,30.19-6.47Z"/>
      <path class="st11" d="M488.68,441.57c.53,9.67-2.16,18.85-4.61,28.48,7.46-7.54,13.79-14,22.14-18.16-5.28,8.82-12.45,16.24-20.06,23.28l-14.07,7.47c-9.78,3.74-19.98,6.35-30.28,6.33,8.85-5.46,18.91-8.12,29.19-9.96-11.17-2.48-20.74-4.81-29.07-10.36,10.22.3,19.84,2.86,30.31,6.36-8.23-7.24-15.49-14.11-20.44-22.96,8.59,4.56,15.44,11.29,22.4,19.15-2.68-9.3-5.59-17.75-5.76-26.75l-.04-1.91c0-.28.24-.47.81-.64,5.1,9.42,8.36,19.62,9.36,31.06,1.91-10.88,5.28-21.73,10.11-31.39Z"/>
    </g>
  </g>
</svg>